<svg width="60" height="61" viewBox="0 0 60 61" fill="none" xmlns="http://www.w3.org/2000/svg">
<path d="M5 28C5 14.1925 16.1925 3 30 3C43.8075 3 55 14.1925 55 28V40.885C55 45 51.45 48 47.5 48H40V28H50C50 22.6957 47.8929 17.6086 44.1421 13.8579C40.3914 10.1071 35.3043 8 30 8C24.6957 8 19.6086 10.1071 15.8579 13.8579C12.1071 17.6086 10 22.6957 10 28H20V48H15.1575C15.4347 49.0735 16.0608 50.0244 16.9374 50.7032C17.814 51.3821 18.8913 51.7503 20 51.75H23.91C24.7 50.6175 26.0125 49.875 27.5 49.875H32.5C33.6603 49.875 34.7731 50.3359 35.5936 51.1564C36.4141 51.9769 36.875 53.0897 36.875 54.25C36.875 55.4103 36.4141 56.5231 35.5936 57.3436C34.7731 58.1641 33.6603 58.625 32.5 58.625H27.5C26.0125 58.625 24.7 57.8825 23.91 56.75H20C17.4948 56.7503 15.0807 55.8103 13.2354 54.1159C11.3901 52.4215 10.2479 50.0962 10.035 47.6C7.185 46.6575 5 44.115 5 40.8875V28Z" fill="black"/>
</svg>
