<svg width="60" height="61" viewBox="0 0 60 61" fill="none" xmlns="http://www.w3.org/2000/svg">
<path d="M50.625 9.875H9.375C8.38044 9.875 7.42661 10.2701 6.72335 10.9733C6.02009 11.6766 5.625 12.6304 5.625 13.625V47.375C5.625 48.3696 6.02009 49.3234 6.72335 50.0266C7.42661 50.7299 8.38044 51.125 9.375 51.125H12.5133C12.8681 51.1251 13.2157 51.0245 13.5157 50.8349C13.8157 50.6453 14.0557 50.3745 14.2078 50.0539C15.1196 48.1289 16.5591 46.5023 18.3589 45.3633C20.1588 44.2243 22.245 43.6196 24.375 43.6196C26.505 43.6196 28.5912 44.2243 30.3911 45.3633C32.1909 46.5023 33.6304 48.1289 34.5422 50.0539C34.6943 50.3745 34.9343 50.6453 35.2343 50.8349C35.5343 51.0245 35.8819 51.1251 36.2367 51.125H50.625C51.6196 51.125 52.5734 50.7299 53.2766 50.0266C53.9799 49.3234 54.375 48.3696 54.375 47.375V13.625C54.375 12.6304 53.9799 11.6766 53.2766 10.9733C52.5734 10.2701 51.6196 9.875 50.625 9.875ZM24.375 39.875C22.8916 39.875 21.4416 39.4351 20.2082 38.611C18.9749 37.7869 18.0136 36.6156 17.4459 35.2451C16.8782 33.8747 16.7297 32.3667 17.0191 30.9118C17.3085 29.457 18.0228 28.1206 19.0717 27.0717C20.1206 26.0228 21.457 25.3085 22.9118 25.0191C24.3667 24.7297 25.8747 24.8782 27.2451 25.4459C28.6156 26.0136 29.7869 26.9749 30.611 28.2082C31.4351 29.4416 31.875 30.8916 31.875 32.375C31.875 34.3641 31.0848 36.2718 29.6783 37.6783C28.2718 39.0848 26.3641 39.875 24.375 39.875ZM50.625 47.375H37.3664C36.5488 45.9658 35.507 44.6992 34.282 43.625H45C45.4973 43.625 45.9742 43.4275 46.3258 43.0758C46.6775 42.7242 46.875 42.2473 46.875 41.75V19.25C46.875 18.7527 46.6775 18.2758 46.3258 17.9242C45.9742 17.5725 45.4973 17.375 45 17.375H15C14.5027 17.375 14.0258 17.5725 13.6742 17.9242C13.3225 18.2758 13.125 18.7527 13.125 19.25V41.75C13.1248 42.1658 13.2628 42.57 13.5174 42.8988C13.772 43.2276 14.1286 43.4624 14.5312 43.5664C13.2778 44.6523 12.214 45.9395 11.3836 47.375H9.375V13.625H50.625V47.375Z" fill="black"/>
</svg>
