<svg width="60" height="61" viewBox="0 0 60 61" fill="none" xmlns="http://www.w3.org/2000/svg">
<g clip-path="url(#clip0_219_24401)">
<path d="M5.78037e-06 24.875C-0.00379139 19.3591 1.86331 14.0051 5.29621 9.6878C8.72911 5.37047 13.5248 2.34511 18.8997 1.1061C24.2745 -0.132914 29.9107 0.487686 34.8872 2.86648C39.8637 5.24528 43.8862 9.24162 46.2975 14.2025C49.7878 15.904 52.8211 18.4147 55.1449 21.5256C57.4686 24.6366 59.0155 28.2576 59.6567 32.0873C60.298 35.9169 60.015 39.8444 58.8314 43.5426C57.6478 47.2408 55.5978 50.6027 52.8521 53.3483C50.1065 56.094 46.7446 58.144 43.0464 59.3276C39.3482 60.5112 35.4207 60.7942 31.5911 60.1529C27.7614 59.5117 24.1404 57.9648 21.0294 55.6411C17.9185 53.3173 15.4078 50.284 13.7063 46.7937C9.59623 44.793 6.13162 41.6768 3.70803 37.801C1.28443 33.9253 -0.000478512 29.4461 5.78037e-06 24.875ZM19.29 48.7175C21.0802 51.0392 23.3449 52.9526 25.9329 54.33C28.5209 55.7075 31.3729 56.5174 34.2986 56.7057C37.2243 56.894 40.1566 56.4564 42.8998 55.422C45.6431 54.3877 48.1343 52.7804 50.2074 50.7073C52.2805 48.6343 53.8878 46.143 54.9221 43.3998C55.9564 40.6565 56.394 37.7243 56.2057 34.7986C56.0174 31.8728 55.2075 29.0209 53.8301 26.4328C52.4526 23.8448 50.5392 21.5802 48.2175 19.79C49.0666 23.7666 48.9074 27.8925 47.7543 31.7919C46.6012 35.6913 44.4909 39.2402 41.6156 42.1155C38.7403 44.9908 35.1913 47.1011 31.2919 48.2542C27.3926 49.4073 23.2667 49.5666 19.29 48.7175ZM16.5413 43.9587C17.9063 44.5237 19.3363 44.9362 20.8313 45.1962L15.3038 39.6687C15.5638 41.1612 15.9763 42.5912 16.5413 43.9587ZM26.3438 45.4062C27.8387 45.2647 29.3137 44.9604 30.7425 44.4987L16.4025 30.1625C15.8984 31.521 15.5266 32.925 15.2925 34.355L26.3438 45.4062ZM34.4325 42.8862C35.5475 42.2612 36.595 41.5412 37.575 40.7262L20.3175 23.4725C19.4977 24.441 18.7613 25.4772 18.1163 26.57L34.4325 42.8862ZM40.2263 38.0712C41.0388 37.0962 41.7588 36.05 42.3863 34.9325L26.0738 18.6125C24.9797 19.2574 23.9423 19.9937 22.9725 20.8137L40.2225 38.0712H40.2263ZM43.9988 31.2387C44.4563 29.8337 44.7588 28.3687 44.9063 26.8437L33.855 15.7925C32.405 16.0325 31.0075 16.4025 29.6625 16.9025L43.9988 31.2425V31.2387ZM44.6963 21.3312C44.4402 19.8606 44.0253 18.4222 43.4588 17.0412C42.0778 16.4747 40.6393 16.0598 39.1688 15.8037L44.6963 21.3312Z" fill="black"/>
</g>
<defs>
<clipPath id="clip0_219_24401">
<rect width="60" height="60" fill="white" transform="translate(0 0.5)"/>
</clipPath>
</defs>
</svg>
