<svg width="60" height="61" viewBox="0 0 60 61" fill="none" xmlns="http://www.w3.org/2000/svg">
<g clip-path="url(#clip0_350_19322)">
<path d="M30 25.5C31.1491 25.5 32.2869 25.2737 33.3485 24.8339C34.4101 24.3942 35.3747 23.7497 36.1872 22.9372C36.9997 22.1247 37.6442 21.1601 38.0839 20.0985C38.5237 19.0369 38.75 17.8991 38.75 16.75C38.75 15.6009 38.5237 14.4631 38.0839 13.4015C37.6442 12.3399 36.9997 11.3753 36.1872 10.5628C35.3747 9.7503 34.4101 9.10578 33.3485 8.66605C32.2869 8.22633 31.1491 8 30 8C27.6794 8 25.4538 8.92187 23.8128 10.5628C22.1719 12.2038 21.25 14.4294 21.25 16.75C21.25 19.0706 22.1719 21.2962 23.8128 22.9372C25.4538 24.5781 27.6794 25.5 30 25.5Z" fill="#080808" stroke="#080808" stroke-width="1.66667" stroke-linecap="round" stroke-linejoin="round"/>
<path d="M15 9.56885C13.8416 10.3742 12.8955 11.448 12.2424 12.6986C11.5894 13.9492 11.2489 15.3393 11.25 16.7501C11.2497 18.2598 11.64 19.7439 12.383 21.0581C13.1259 22.3723 14.1963 23.472 15.49 24.2501M45 9.56885C46.1584 10.3742 47.1046 11.448 47.7576 12.6986C48.4106 13.9492 48.7511 15.3393 48.75 16.7501C48.7513 18.1611 48.4109 19.5515 47.7579 20.8023C47.1048 22.0531 46.1586 23.1272 45 23.9326" stroke="#080808" stroke-width="3" stroke-linecap="round" stroke-linejoin="round"/>
<g filter="url(#filter0_d_350_19322)">
<path d="M15 50.5V53H45V50.5C45 45.8413 45 43.5112 44.2387 41.6725C43.2235 39.2224 41.2766 37.2759 38.8263 36.2612C36.99 35.5 34.66 35.5 30 35.5C25.34 35.5 23.0112 35.5 21.1737 36.2612C19.9603 36.7638 18.8578 37.5005 17.9291 38.4291C17.0005 39.3578 16.2638 40.4603 15.7613 41.6737C15 43.5112 15 45.8413 15 50.5Z" fill="#080808"/>
<path d="M15 50.5V53H45V50.5C45 45.8413 45 43.5112 44.2387 41.6725C43.2235 39.2224 41.2766 37.2759 38.8263 36.2612C36.99 35.5 34.66 35.5 30 35.5C25.34 35.5 23.0112 35.5 21.1737 36.2612C19.9603 36.7638 18.8578 37.5005 17.9291 38.4291C17.0005 39.3578 16.2638 40.4603 15.7613 41.6737C15 43.5112 15 45.8413 15 50.5Z" stroke="#080808" stroke-width="1.66667" stroke-linecap="round" stroke-linejoin="round"/>
</g>
<path d="M55 53.0001V51.5001C55 45.9001 55 43.1001 53.91 40.9601C52.9513 39.0786 51.4215 37.5488 49.54 36.5901M5 53.0001V51.5001C5 45.9001 5 43.1001 6.09 40.9601C7.04872 39.0786 8.57846 37.5488 10.46 36.5901" stroke="#080808" stroke-width="3" stroke-linecap="round" stroke-linejoin="round"/>
</g>
<defs>
<filter id="filter0_d_350_19322" x="10.1666" y="34.6667" width="39.6667" height="27.1665" filterUnits="userSpaceOnUse" color-interpolation-filters="sRGB">
<feFlood flood-opacity="0" result="BackgroundImageFix"/>
<feColorMatrix in="SourceAlpha" type="matrix" values="0 0 0 0 0 0 0 0 0 0 0 0 0 0 0 0 0 0 127 0" result="hardAlpha"/>
<feOffset dy="4"/>
<feGaussianBlur stdDeviation="2"/>
<feComposite in2="hardAlpha" operator="out"/>
<feColorMatrix type="matrix" values="0 0 0 0 0 0 0 0 0 0 0 0 0 0 0 0 0 0 0.25 0"/>
<feBlend mode="normal" in2="BackgroundImageFix" result="effect1_dropShadow_350_19322"/>
<feBlend mode="normal" in="SourceGraphic" in2="effect1_dropShadow_350_19322" result="shape"/>
</filter>
<clipPath id="clip0_350_19322">
<rect width="60" height="60" fill="white" transform="translate(0 0.5)"/>
</clipPath>
</defs>
</svg>
