<svg width="102" height="40" viewBox="0 0 102 40" fill="none" xmlns="http://www.w3.org/2000/svg">
<path d="M102 13.2514L51 0L0 13.2514L29.2958 21.139C28.5861 25.3385 27.815 29.3046 27.9379 31.9865C30.7229 37.7528 42.1733 39.0154 51 39.0154C59.8267 39.0154 71.2771 37.7466 74.0606 31.9803C74.1835 29.2984 73.4123 25.3324 72.7011 21.1328L102 13.2514Z" fill="black" fill-opacity="0.8"/>
<path d="M8.67768 15.5878L8.91886 18.7566L7.89271 19.6782C8.48259 22.8394 6.32585 28.9452 7.7775 36.7682C8.57476 36.6438 10.0402 37.0877 10.4611 36.461C12.1693 33.9081 10.5226 24.1635 10.561 20.437C9.93118 19.1693 9.57274 17.6271 9.48569 15.8105L8.67768 15.5878Z" fill="black" fill-opacity="0.8"/>
</svg>
