<svg width="1031" height="579" viewBox="0 0 1031 579" fill="none" xmlns="http://www.w3.org/2000/svg">
<path d="M1 490C43.1667 519 122.5 574.74 328.064 574.74C469 579 668.525 486.317 710.5 345C740.946 242.5 557.742 184.348 545.541 321C535.541 433 720.5 432 788 335C855.5 238 779.5 94 917.5 76" stroke="#D9D9D9" stroke-width="8" stroke-dasharray="16 16"/>
<g clip-path="url(#clip0_90_10736)">
<path d="M1009.26 74.1083L948.82 99.806C948.221 100.061 947.569 100.164 946.921 100.106C946.274 100.048 945.65 99.8318 945.106 99.4753C944.562 99.1189 944.115 98.6336 943.803 98.0627C943.492 97.4918 943.326 96.8528 943.321 96.2025L943.169 77.7105L931.584 77.5452C931.193 77.5391 930.814 77.4175 930.492 77.1956C930.171 76.9738 929.923 76.6618 929.778 76.2989C929.634 75.936 929.601 75.5386 929.683 75.1567C929.764 74.7749 929.957 74.4258 930.237 74.1536L943.039 61.7058L942.806 33.3237C942.8 32.6194 942.983 31.9264 943.335 31.3164C943.687 30.7065 944.196 30.2017 944.809 29.8543C945.421 29.507 946.116 29.3298 946.82 29.3409C947.524 29.3521 948.213 29.5513 948.814 29.918L1009.77 67.099C1010.39 67.4774 1010.89 68.0191 1011.22 68.6646C1011.55 69.3101 1011.7 70.0345 1011.65 70.7582C1011.59 71.482 1011.34 72.1773 1010.92 72.7677C1010.5 73.3581 1009.92 73.821 1009.25 74.1054L1009.26 74.1083ZM999.326 70.3559L948.856 58.982L948.932 68.4697L999.326 70.3559Z" fill="#D9D9D9"/>
</g>
<defs>
<clipPath id="clip0_90_10736">
<rect width="94.832" height="94.832" fill="white" transform="translate(963.99) rotate(45.8039)"/>
</clipPath>
</defs>
</svg>
