<svg width="60" height="57" viewBox="0 0 60 57" fill="none" xmlns="http://www.w3.org/2000/svg">
<g clip-path="url(#clip0_16_763)">
<path d="M30.0021 0.0153809L60.0021 12.0154V16.0154H56.0021C56.0021 16.557 55.7885 17.0258 55.3615 17.4216C54.9344 17.8175 54.4292 18.0154 53.8458 18.0154H6.15833C5.57499 18.0154 5.06978 17.8175 4.6427 17.4216C4.21562 17.0258 4.00208 16.557 4.00208 16.0154H0.0020752V12.0154L30.0021 0.0153809ZM8.00208 20.0154H16.0021V44.0154H20.0021V20.0154H28.0021V44.0154H32.0021V20.0154H40.0021V44.0154H44.0021V20.0154H52.0021V44.0154H53.8458C54.4292 44.0154 54.9344 44.2133 55.3615 44.6091C55.7885 45.005 56.0021 45.4737 56.0021 46.0154V48.0154H4.00208V46.0154C4.00208 45.4737 4.21562 45.005 4.6427 44.6091C5.06978 44.2133 5.57499 44.0154 6.15833 44.0154H8.00208V20.0154ZM57.8458 50.0154C58.4292 50.0154 58.9344 50.2133 59.3615 50.6091C59.7885 51.005 60.0021 51.4737 60.0021 52.0154V56.0154H0.0020752V52.0154C0.0020752 51.4737 0.215617 51.005 0.6427 50.6091C1.06978 50.2133 1.57499 50.0154 2.15833 50.0154H57.8458Z" fill="#9CDB44"/>
</g>
<defs>
<clipPath id="clip0_16_763">
<rect width="60.004" height="56" fill="white" transform="translate(0 0.0153809)"/>
</clipPath>
</defs>
</svg>
