<svg width="196" height="74" viewBox="0 0 196 74" fill="none" xmlns="http://www.w3.org/2000/svg">
<g clip-path="url(#clip0_155_38746)">
<path d="M0.319824 70.937V62.6715H5.9848V64.0697H1.86245V65.9021H5.69816V67.2948H1.86245V69.5444H6.13072V70.937H0.319824Z" fill="black"/>
<path d="M12.473 70.937H11.0086V67.8811C11.0086 67.2346 10.9773 66.8165 10.9148 66.6267C10.8522 66.4368 10.7506 66.2893 10.6099 66.1841C10.4692 66.0788 10.2998 66.0262 10.1018 66.0262C9.84812 66.0262 9.62055 66.1014 9.41904 66.2517C9.21753 66.4021 9.07942 66.6013 9.00472 66.8494C8.93002 67.0974 8.89267 67.556 8.89267 68.2251V70.937H7.42822V64.9493H8.78844V65.8289C9.27138 65.1523 9.87939 64.814 10.6125 64.814C10.9356 64.814 11.2309 64.877 11.4985 65.0029C11.766 65.1288 11.9684 65.2895 12.1056 65.4849C12.2428 65.6804 12.3384 65.9022 12.3922 66.1502C12.4461 66.3983 12.473 66.7535 12.473 67.2158V70.937Z" fill="black"/>
<path d="M13.8286 71.3317L15.5015 71.5516C15.5293 71.7621 15.5936 71.9068 15.6943 71.9857C15.8333 72.0985 16.0522 72.1549 16.351 72.1549C16.7331 72.1549 17.0198 72.0928 17.2109 71.9688C17.3394 71.8861 17.4367 71.7527 17.5027 71.5685C17.5479 71.4369 17.5705 71.1945 17.5705 70.8412V69.9673C17.1327 70.6138 16.5803 70.937 15.9132 70.937C15.1697 70.937 14.5808 70.5969 14.1465 69.9165C13.806 69.379 13.6357 68.71 13.6357 67.9093C13.6357 66.9058 13.859 66.139 14.3054 65.609C14.7519 65.079 15.3069 64.814 15.9705 64.814C16.655 64.814 17.2196 65.1391 17.6643 65.7894V64.9493H19.0349V70.3225C19.0349 71.0291 18.9811 71.5572 18.8734 71.9068C18.7657 72.2563 18.6145 72.5307 18.42 72.73C18.2254 72.9292 17.9657 73.0852 17.6408 73.1979C17.316 73.3107 16.9051 73.3671 16.4083 73.3671C15.4702 73.3671 14.8049 73.1932 14.4123 72.8455C14.0197 72.4978 13.8234 72.0571 13.8234 71.5234C13.8234 71.4708 13.8251 71.4069 13.8286 71.3317ZM15.1367 67.8191C15.1367 68.4544 15.2505 68.9195 15.478 69.2146C15.7056 69.5096 15.9862 69.6572 16.3197 69.6572C16.6776 69.6572 16.9798 69.5059 17.2265 69.2033C17.4732 68.9007 17.5965 68.4525 17.5965 67.8586C17.5965 67.2384 17.4784 66.778 17.2421 66.4773C17.0059 66.1766 16.7071 66.0262 16.3458 66.0262C15.9948 66.0262 15.7056 66.1737 15.478 66.4688C15.2505 66.7639 15.1367 67.214 15.1367 67.8191Z" fill="black"/>
<path d="M20.4888 70.937V62.6715H21.9532V70.937H20.4888Z" fill="black"/>
<path d="M23.4487 64.1374V62.6715H24.9132V64.1374H23.4487ZM23.4487 70.937V64.9493H24.9132V70.937H23.4487Z" fill="black"/>
<path d="M25.8931 69.2287L27.3627 68.9862C27.4253 69.2944 27.5521 69.5284 27.7432 69.6882C27.9343 69.8479 28.2018 69.9278 28.5458 69.9278C28.9245 69.9278 29.2094 69.8526 29.4005 69.7023C29.529 69.597 29.5933 69.4561 29.5933 69.2794C29.5933 69.1591 29.5585 69.0595 29.489 68.9806C29.4161 68.9054 29.2528 68.8359 28.9992 68.772C27.8179 68.4901 27.0691 68.2326 26.753 67.9995C26.3152 67.6763 26.0963 67.2271 26.0963 66.652C26.0963 66.1333 26.2857 65.6973 26.6644 65.344C27.0431 64.9907 27.6303 64.814 28.4259 64.814C29.1833 64.814 29.7461 64.9474 30.1144 65.2143C30.4827 65.4812 30.7363 65.8759 30.8753 66.3983L29.4943 66.6746C29.4352 66.4415 29.3231 66.263 29.1581 66.139C28.9931 66.0149 28.7577 65.9529 28.4519 65.9529C28.0663 65.9529 27.7901 66.0112 27.6233 66.1277C27.5121 66.2104 27.4565 66.3175 27.4565 66.4491C27.4565 66.5618 27.5052 66.6577 27.6025 66.7366C27.7345 66.8418 28.1905 66.9903 28.9705 67.182C29.7505 67.3737 30.2951 67.6086 30.6043 67.8868C30.9101 68.1687 31.0629 68.5615 31.0629 69.0652C31.0629 69.6139 30.851 70.0857 30.4271 70.4803C30.0033 70.875 29.3761 71.0723 28.5458 71.0723C27.7918 71.0723 27.1951 70.907 26.7556 70.5762C26.3161 70.2454 26.0286 69.7962 25.8931 69.2287Z" fill="black"/>
<path d="M33.8097 62.6715V65.7104C34.2822 65.1128 34.8468 64.814 35.5034 64.814C35.8404 64.814 36.1444 64.8816 36.4154 65.017C36.6864 65.1523 36.8906 65.3252 37.0278 65.5357C37.165 65.7462 37.2588 65.9792 37.3092 66.2348C37.3596 66.4904 37.3848 66.8869 37.3848 67.4244V70.937H35.9204V67.774C35.9203 67.1463 35.8926 66.7479 35.837 66.5787C35.7814 66.4096 35.6832 66.2752 35.5425 66.1756C35.4018 66.076 35.2255 66.0262 35.0135 66.0262C34.7703 66.0262 34.5532 66.0901 34.3621 66.2179C34.171 66.3457 34.0312 66.5383 33.9426 66.7958C33.854 67.0533 33.8097 67.4338 33.8097 67.9375V70.937H32.3452V62.6715H33.8097Z" fill="black"/>
<path d="M41.1943 64.9493H42.0073V64.4982C42.0073 63.9946 42.0569 63.6187 42.1559 63.3706C42.2549 63.1225 42.4373 62.9205 42.7031 62.7645C42.9689 62.6085 43.305 62.5305 43.7115 62.5305C44.1284 62.5305 44.5367 62.5982 44.9362 62.7335L44.7382 63.8386C44.5054 63.7784 44.2813 63.7484 44.0659 63.7484C43.854 63.7484 43.702 63.8019 43.6099 63.909C43.5178 64.0162 43.4718 64.222 43.4718 64.5264V64.9493H44.5662V66.1953H43.4718V70.937H42.0073V66.1953H41.1943V64.9493Z" fill="black"/>
<path d="M45.061 67.8586C45.061 67.3324 45.1809 66.8231 45.4206 66.3307C45.6604 65.8383 46 65.4624 46.4395 65.203C46.879 64.9437 47.3698 64.814 47.9118 64.814C48.7491 64.814 49.4353 65.1081 49.9703 65.6964C50.5054 66.2846 50.7729 67.0279 50.7729 67.9262C50.7729 68.8321 50.5028 69.5829 49.9625 70.1787C49.4222 70.7745 48.7421 71.0723 47.9222 71.0723C47.4149 71.0723 46.9311 70.9483 46.4708 70.7002C46.0104 70.4521 45.6604 70.0885 45.4206 69.6092C45.1809 69.13 45.061 68.5464 45.061 67.8586ZM46.562 67.9432C46.562 68.5371 46.6923 68.9919 46.9528 69.3076C47.2134 69.6233 47.5348 69.7812 47.917 69.7812C48.2992 69.7812 48.6197 69.6233 48.8785 69.3076C49.1373 68.9919 49.2668 68.5333 49.2668 67.9319C49.2668 67.3455 49.1373 66.8945 48.8785 66.5787C48.6197 66.263 48.2992 66.1051 47.917 66.1051C47.5348 66.1051 47.2134 66.263 46.9528 66.5787C46.6923 66.8945 46.562 67.3493 46.562 67.9432Z" fill="black"/>
<path d="M53.3268 70.937H51.8623V64.9493H53.2225V65.8007C53.4553 65.3985 53.6646 65.1335 53.8505 65.0057C54.0364 64.8779 54.2475 64.814 54.4837 64.814C54.8173 64.814 55.1386 64.9136 55.4479 65.1128L54.9945 66.4942C54.7478 66.3213 54.5185 66.2348 54.3065 66.2348C54.1015 66.2348 53.9278 66.2959 53.7854 66.418C53.6429 66.5402 53.5309 66.761 53.4492 67.0805C53.3676 67.4 53.3268 68.0691 53.3268 69.0877V70.937Z" fill="black"/>
<path d="M58.9966 70.937V62.6715H60.5392V70.937H58.9966Z" fill="black"/>
<path d="M67.0277 70.937H65.5633V67.8811C65.5633 67.2346 65.532 66.8165 65.4695 66.6267C65.4069 66.4368 65.3053 66.2893 65.1646 66.1841C65.0239 66.0788 64.8545 66.0262 64.6564 66.0262C64.4028 66.0262 64.1752 66.1014 63.9737 66.2517C63.7722 66.4021 63.6341 66.6013 63.5594 66.8494C63.4847 67.0974 63.4474 67.556 63.4474 68.2251V70.937H61.9829V64.9493H63.3431V65.8289C63.8261 65.1523 64.4341 64.814 65.1672 64.814C65.4903 64.814 65.7856 64.877 66.0531 65.0029C66.3207 65.1288 66.523 65.2895 66.6603 65.4849C66.7975 65.6804 66.8931 65.9022 66.9469 66.1502C67.0008 66.3983 67.0277 66.7535 67.0277 67.2158V70.937Z" fill="black"/>
<path d="M71.0566 64.9493V66.2122H70.056V68.6254C70.056 69.114 70.0656 69.3987 70.0847 69.4795C70.1038 69.5604 70.1472 69.6271 70.215 69.6797C70.2827 69.7323 70.3652 69.7586 70.4625 69.7586C70.598 69.7586 70.7943 69.7079 71.0514 69.6064L71.1765 70.8355C70.836 70.9934 70.4504 71.0723 70.0195 71.0723C69.7555 71.0723 69.5175 71.0244 69.3056 70.9285C69.0936 70.8327 68.9381 70.7087 68.8391 70.5564C68.7401 70.4042 68.6715 70.1984 68.6333 69.9391C68.602 69.7549 68.5864 69.3828 68.5864 68.8227V66.2122H67.9141V64.9493H68.5864V63.7596L70.056 62.835V64.9493H71.0566Z" fill="black"/>
<path d="M75.2882 69.0313L76.7475 69.2963C76.5598 69.8752 76.2637 70.3159 75.8589 70.6185C75.4541 70.921 74.9477 71.0723 74.3397 71.0723C73.3773 71.0723 72.6651 70.7322 72.203 70.0518C71.8382 69.5068 71.6558 68.819 71.6558 67.9883C71.6558 66.996 71.8955 66.2188 72.375 65.6569C72.8544 65.095 73.4607 64.814 74.1938 64.814C75.0172 64.814 75.6669 65.1081 76.1429 65.6964C76.6189 66.2846 76.8465 67.1858 76.8256 68.3999H73.1567C73.1671 68.8697 73.2852 69.2352 73.5111 69.4965C73.7369 69.7577 74.0183 69.8883 74.3554 69.8883C74.5847 69.8883 74.7775 69.8207 74.9338 69.6853C75.0902 69.55 75.2083 69.332 75.2882 69.0313ZM75.3716 67.4301C75.3612 66.9715 75.2517 66.6229 75.0433 66.3842C74.8348 66.1455 74.5812 66.0262 74.2824 66.0262C73.9627 66.0262 73.6987 66.1521 73.4902 66.404C73.2818 66.6558 73.1793 66.9978 73.1828 67.4301H75.3716Z" fill="black"/>
<path d="M79.4264 70.937H77.9619V64.9493H79.3221V65.8007C79.5549 65.3985 79.7642 65.1335 79.9501 65.0057C80.136 64.8779 80.3471 64.814 80.5833 64.814C80.9169 64.814 81.2382 64.9136 81.5475 65.1128L81.0941 66.4942C80.8474 66.3213 80.6181 66.2348 80.4061 66.2348C80.2011 66.2348 80.0274 66.2959 79.885 66.418C79.7425 66.5402 79.6305 66.761 79.5488 67.0805C79.4672 67.4 79.4264 68.0691 79.4264 69.0877V70.937Z" fill="black"/>
<path d="M87.2069 70.937H85.7425V67.8811C85.7425 67.2346 85.7112 66.8165 85.6486 66.6267C85.5861 66.4368 85.4845 66.2893 85.3438 66.1841C85.2031 66.0788 85.0337 66.0262 84.8356 66.0262C84.582 66.0262 84.3544 66.1014 84.1529 66.2517C83.9514 66.4021 83.8133 66.6013 83.7386 66.8494C83.6639 67.0974 83.6266 67.556 83.6266 68.2251V70.937H82.1621V64.9493H83.5223V65.8289C84.0053 65.1523 84.6133 64.814 85.3464 64.814C85.6695 64.814 85.9648 64.877 86.2323 65.0029C86.4999 65.1288 86.7023 65.2895 86.8395 65.4849C86.9767 65.6804 87.0723 65.9022 87.1261 66.1502C87.18 66.3983 87.2069 66.7535 87.2069 67.2158V70.937Z" fill="black"/>
<path d="M89.7921 66.7761L88.4632 66.5167C88.6126 65.9379 88.8697 65.5094 89.2345 65.2312C89.5993 64.9531 90.1413 64.814 90.8605 64.814C91.5137 64.814 92.0001 64.8976 92.3197 65.0649C92.6394 65.2322 92.8643 65.4445 92.9946 65.702C93.1249 65.9595 93.1901 66.4321 93.1901 67.12L93.1744 68.9693C93.1744 69.4955 93.1979 69.8836 93.2448 70.1336C93.2917 70.3835 93.3794 70.6514 93.5079 70.937H92.0591C92.0209 70.8318 91.974 70.6758 91.9184 70.4691C91.8941 70.3751 91.8767 70.3131 91.8663 70.283C91.6161 70.5461 91.3486 70.7434 91.0637 70.875C90.7788 71.0066 90.4748 71.0723 90.1517 71.0723C89.5819 71.0723 89.1328 70.9051 88.8045 70.5705C88.4762 70.236 88.312 69.8132 88.312 69.302C88.312 68.9637 88.3867 68.662 88.5361 68.397C88.6855 68.132 88.8948 67.9291 89.1641 67.7881C89.4334 67.6472 89.8216 67.5241 90.3289 67.4188C91.0133 67.2797 91.4876 67.1501 91.7516 67.0298V66.8719C91.7516 66.5675 91.6822 66.3504 91.5432 66.2207C91.4042 66.091 91.1419 66.0262 90.7562 66.0262C90.4957 66.0262 90.2924 66.0816 90.1465 66.1925C90.0006 66.3034 89.8824 66.4979 89.7921 66.7761ZM91.7517 68.0616C91.564 68.1292 91.267 68.21 90.8605 68.304C90.454 68.398 90.1882 68.4901 90.0631 68.5803C89.872 68.7269 89.7765 68.9129 89.7765 69.1384C89.7765 69.3602 89.8529 69.5519 90.0058 69.7135C90.1587 69.8752 90.3532 69.956 90.5895 69.956C90.8535 69.956 91.1054 69.862 91.3452 69.6741C91.5223 69.5312 91.6387 69.3565 91.6943 69.1497C91.7325 69.0144 91.7517 68.7569 91.7517 68.3773V68.0616Z" fill="black"/>
<path d="M97.1773 64.9493V66.2122H96.1766V68.6254C96.1766 69.114 96.1862 69.3987 96.2053 69.4795C96.2244 69.5604 96.2678 69.6271 96.3356 69.6797C96.4033 69.7323 96.4858 69.7586 96.5831 69.7586C96.7186 69.7586 96.9149 69.7079 97.172 69.6064L97.2971 70.8355C96.9566 70.9934 96.571 71.0723 96.1401 71.0723C95.8761 71.0723 95.6381 71.0244 95.4262 70.9285C95.2142 70.8327 95.0587 70.7087 94.9597 70.5564C94.8607 70.4042 94.7921 70.1984 94.7539 69.9391C94.7226 69.7549 94.707 69.3828 94.707 68.8227V66.2122H94.0347V64.9493H94.707V63.7596L96.1766 62.835V64.9493H97.1773Z" fill="black"/>
<path d="M98.2036 64.1374V62.6715H99.6681V64.1374H98.2036ZM98.2036 70.937V64.9493H99.6681V70.937H98.2036Z" fill="black"/>
<path d="M100.825 67.8586C100.825 67.3324 100.945 66.8231 101.185 66.3307C101.425 65.8383 101.764 65.4624 102.204 65.203C102.643 64.9437 103.134 64.814 103.676 64.814C104.513 64.814 105.199 65.1081 105.734 65.6964C106.27 66.2846 106.537 67.0279 106.537 67.9262C106.537 68.8321 106.267 69.5829 105.727 70.1787C105.186 70.7745 104.506 71.0723 103.686 71.0723C103.179 71.0723 102.695 70.9483 102.235 70.7002C101.775 70.4521 101.425 70.0885 101.185 69.6092C100.945 69.13 100.825 68.5464 100.825 67.8586ZM102.326 67.9432C102.326 68.5371 102.456 68.9919 102.717 69.3076C102.978 69.6233 103.299 69.7812 103.681 69.7812C104.063 69.7812 104.384 69.6233 104.643 69.3076C104.902 68.9919 105.031 68.5333 105.031 67.9319C105.031 67.3455 104.902 66.8945 104.643 66.5787C104.384 66.263 104.063 66.1051 103.681 66.1051C103.299 66.1051 102.978 66.263 102.717 66.5787C102.456 66.8945 102.326 67.3493 102.326 67.9432Z" fill="black"/>
<path d="M112.723 70.937H111.259V67.8811C111.259 67.2346 111.227 66.8165 111.165 66.6267C111.102 66.4368 111.001 66.2893 110.86 66.1841C110.719 66.0788 110.55 66.0262 110.352 66.0262C110.098 66.0262 109.871 66.1014 109.669 66.2517C109.468 66.4021 109.329 66.6013 109.255 66.8494C109.18 67.0974 109.143 67.556 109.143 68.2251V70.937H107.678V64.9493H109.038V65.8289C109.521 65.1523 110.129 64.814 110.862 64.814C111.186 64.814 111.481 64.877 111.748 65.0029C112.016 65.1288 112.218 65.2895 112.356 65.4849C112.493 65.6804 112.588 65.9022 112.642 66.1502C112.696 66.3983 112.723 66.7535 112.723 67.2158V70.937Z" fill="black"/>
<path d="M115.308 66.7761L113.979 66.5167C114.128 65.9379 114.385 65.5094 114.75 65.2312C115.115 64.9531 115.657 64.814 116.376 64.814C117.029 64.814 117.516 64.8976 117.835 65.0649C118.155 65.2322 118.38 65.4445 118.51 65.702C118.641 65.9595 118.706 66.4321 118.706 67.12L118.69 68.9693C118.69 69.4955 118.713 69.8836 118.76 70.1336C118.807 70.3835 118.895 70.6514 119.024 70.937H117.575C117.537 70.8318 117.49 70.6758 117.434 70.4691C117.41 70.3751 117.392 70.3131 117.382 70.283C117.132 70.5461 116.864 70.7434 116.579 70.875C116.294 71.0066 115.99 71.0723 115.667 71.0723C115.098 71.0723 114.648 70.9051 114.32 70.5705C113.992 70.236 113.828 69.8132 113.828 69.302C113.828 68.9637 113.902 68.662 114.052 68.397C114.201 68.132 114.41 67.9291 114.68 67.7881C114.949 67.6472 115.337 67.5241 115.845 67.4188C116.529 67.2797 117.003 67.1501 117.267 67.0298V66.8719C117.267 66.5675 117.198 66.3504 117.059 66.2207C116.92 66.091 116.658 66.0262 116.272 66.0262C116.011 66.0262 115.808 66.0816 115.662 66.1925C115.516 66.3034 115.398 66.4979 115.308 66.7761ZM117.267 68.0616C117.08 68.1292 116.783 68.21 116.376 68.304C115.97 68.398 115.704 68.4901 115.579 68.5803C115.388 68.7269 115.292 68.9129 115.292 69.1384C115.292 69.3602 115.369 69.5519 115.521 69.7135C115.674 69.8752 115.869 69.956 116.105 69.956C116.369 69.956 116.621 69.862 116.861 69.6741C117.038 69.5312 117.154 69.3565 117.21 69.1497C117.248 69.0144 117.267 68.7569 117.267 68.3773V68.0616Z" fill="black"/>
<path d="M120.155 70.937V62.6715H121.619V70.937H120.155Z" fill="black"/>
<path d="M125.773 66.855C125.773 66.013 125.889 65.3064 126.122 64.735C126.296 64.3141 126.533 63.9363 126.834 63.6018C127.134 63.2672 127.463 63.0192 127.821 62.8575C128.297 62.6395 128.846 62.5305 129.468 62.5305C130.594 62.5305 131.494 62.9083 132.17 63.6638C132.846 64.4193 133.184 65.4699 133.184 66.8155C133.184 68.1499 132.849 69.1939 132.178 69.9475C131.507 70.7011 130.611 71.0779 129.489 71.0779C128.353 71.0779 127.449 70.703 126.779 69.9531C126.108 69.2033 125.773 68.1705 125.773 66.855ZM127.362 66.7986C127.362 67.7345 127.562 68.444 127.962 68.927C128.361 69.41 128.869 69.6515 129.484 69.6515C130.099 69.6515 130.603 69.4119 130.998 68.9326C131.392 68.4534 131.589 67.7345 131.589 66.776C131.589 65.8288 131.397 65.1222 131.013 64.6561C130.629 64.19 130.119 63.957 129.484 63.957C128.848 63.957 128.335 64.1928 127.946 64.6646C127.557 65.1363 127.362 65.8476 127.362 66.7986Z" fill="black"/>
<path d="M134.33 64.9493H135.696V65.8289C135.873 65.5282 136.112 65.2838 136.415 65.0959C136.717 64.908 137.052 64.814 137.421 64.814C138.063 64.814 138.609 65.0865 139.057 65.6315C139.505 66.1766 139.729 66.9358 139.729 67.9093C139.729 68.9092 139.503 69.6863 139.052 70.2407C138.6 70.7951 138.053 71.0723 137.41 71.0723C137.104 71.0723 136.827 71.0066 136.579 70.875C136.33 70.7434 136.069 70.5179 135.795 70.1984V73.2148H134.33V64.9493ZM135.779 67.8417C135.779 68.5145 135.902 69.0116 136.149 69.333C136.396 69.6543 136.696 69.815 137.051 69.815C137.391 69.815 137.674 69.6675 137.9 69.3724C138.126 69.0774 138.239 68.5934 138.239 67.9206C138.239 67.2929 138.122 66.8268 137.89 66.5224C137.657 66.2179 137.368 66.0657 137.024 66.0657C136.667 66.0657 136.37 66.2151 136.133 66.5139C135.897 66.8127 135.779 67.2553 135.779 67.8417Z" fill="black"/>
<path d="M140.855 64.9493H142.221V65.8289C142.398 65.5282 142.638 65.2838 142.94 65.0959C143.242 64.908 143.578 64.814 143.946 64.814C144.589 64.814 145.134 65.0865 145.582 65.6315C146.031 66.1766 146.255 66.9358 146.255 67.9093C146.255 68.9092 146.029 69.6863 145.577 70.2407C145.125 70.7951 144.578 71.0723 143.936 71.0723C143.63 71.0723 143.353 71.0066 143.104 70.875C142.856 70.7434 142.594 70.5179 142.32 70.1984V73.2148H140.855V64.9493ZM142.304 67.8417C142.304 68.5145 142.428 69.0116 142.674 69.333C142.921 69.6543 143.222 69.815 143.576 69.815C143.916 69.815 144.2 69.6675 144.425 69.3724C144.651 69.0774 144.764 68.5934 144.764 67.9206C144.764 67.2929 144.648 66.8268 144.415 66.5224C144.182 66.2179 143.894 66.0657 143.55 66.0657C143.192 66.0657 142.895 66.2151 142.659 66.5139C142.422 66.8127 142.304 67.2553 142.304 67.8417Z" fill="black"/>
<path d="M147.083 67.8586C147.083 67.3324 147.202 66.8231 147.442 66.3307C147.682 65.8383 148.021 65.4624 148.461 65.203C148.9 64.9437 149.391 64.814 149.933 64.814C150.771 64.814 151.457 65.1081 151.992 65.6964C152.527 66.2846 152.794 67.0279 152.794 67.9262C152.794 68.8321 152.524 69.5829 151.984 70.1787C151.444 70.7745 150.764 71.0723 149.944 71.0723C149.436 71.0723 148.953 70.9483 148.492 70.7002C148.032 70.4521 147.682 70.0885 147.442 69.6092C147.202 69.13 147.083 68.5464 147.083 67.8586ZM148.583 67.9432C148.583 68.5371 148.714 68.9919 148.974 69.3076C149.235 69.6233 149.556 69.7812 149.938 69.7812C150.321 69.7812 150.641 69.6233 150.9 69.3076C151.159 68.9919 151.288 68.5333 151.288 67.9319C151.288 67.3455 151.159 66.8945 150.9 66.5787C150.641 66.263 150.321 66.1051 149.938 66.1051C149.556 66.1051 149.235 66.263 148.974 66.5787C148.714 66.8945 148.583 67.3493 148.583 67.9432Z" fill="black"/>
<path d="M155.348 70.937H153.884V64.9493H155.244V65.8007C155.477 65.3985 155.686 65.1335 155.872 65.0057C156.058 64.8779 156.269 64.814 156.505 64.814C156.839 64.814 157.16 64.9136 157.469 65.1128L157.016 66.4942C156.769 66.3213 156.54 66.2348 156.328 66.2348C156.123 66.2348 155.949 66.2959 155.807 66.418C155.664 66.5402 155.552 66.761 155.471 67.0805C155.389 67.4 155.348 68.0691 155.348 69.0877V70.937Z" fill="black"/>
<path d="M160.633 64.9493V66.2122H159.632V68.6254C159.632 69.114 159.642 69.3987 159.661 69.4795C159.68 69.5604 159.723 69.6271 159.791 69.6797C159.859 69.7323 159.941 69.7586 160.039 69.7586C160.174 69.7586 160.37 69.7079 160.628 69.6064L160.753 70.8355C160.412 70.9934 160.027 71.0723 159.596 71.0723C159.332 71.0723 159.094 71.0244 158.882 70.9285C158.67 70.8327 158.514 70.7087 158.415 70.5564C158.316 70.4042 158.248 70.1984 158.209 69.9391C158.178 69.7549 158.163 69.3828 158.163 68.8227V66.2122H157.49V64.9493H158.163V63.7596L159.632 62.835V64.9493H160.633Z" fill="black"/>
<path d="M165.303 70.937V70.0406C165.101 70.3601 164.836 70.6119 164.508 70.7961C164.179 70.9802 163.833 71.0723 163.468 71.0723C163.096 71.0723 162.763 70.984 162.467 70.8073C162.172 70.6307 161.958 70.3826 161.826 70.0631C161.694 69.7436 161.628 69.302 161.628 68.7381V64.9493H163.093V67.7007C163.093 68.5427 163.12 69.0586 163.174 69.2484C163.227 69.4382 163.326 69.5886 163.468 69.6994C163.611 69.8103 163.791 69.8658 164.01 69.8658C164.26 69.8658 164.484 69.7915 164.682 69.6431C164.88 69.4946 165.016 69.3104 165.089 69.0905C165.162 68.8706 165.198 68.3322 165.198 67.4752V64.9493H166.663V70.937H165.303Z" fill="black"/>
<path d="M173.219 70.937H171.754V67.8811C171.754 67.2346 171.723 66.8165 171.66 66.6267C171.598 66.4368 171.496 66.2893 171.355 66.1841C171.215 66.0788 171.045 66.0262 170.847 66.0262C170.594 66.0262 170.366 66.1014 170.165 66.2517C169.963 66.4021 169.825 66.6013 169.75 66.8494C169.676 67.0974 169.638 67.556 169.638 68.2251V70.937H168.174V64.9493H169.534V65.8289C170.017 65.1523 170.625 64.814 171.358 64.814C171.681 64.814 171.977 64.877 172.244 65.0029C172.512 65.1288 172.714 65.2895 172.851 65.4849C172.988 65.6804 173.084 65.9022 173.138 66.1502C173.192 66.3983 173.219 66.7535 173.219 67.2158V70.937Z" fill="black"/>
<path d="M174.709 64.1374V62.6715H176.174V64.1374H174.709ZM174.709 70.937V64.9493H176.174V70.937H174.709Z" fill="black"/>
<path d="M180.208 64.9493V66.2122H179.207V68.6254C179.207 69.114 179.216 69.3987 179.236 69.4795C179.255 69.5604 179.298 69.6271 179.366 69.6797C179.434 69.7323 179.516 69.7586 179.613 69.7586C179.749 69.7586 179.945 69.7079 180.202 69.6064L180.327 70.8355C179.987 70.9934 179.601 71.0723 179.17 71.0723C178.906 71.0723 178.668 71.0244 178.456 70.9285C178.244 70.8327 178.089 70.7087 177.99 70.5564C177.891 70.4042 177.822 70.1984 177.784 69.9391C177.753 69.7549 177.737 69.3828 177.737 68.8227V66.2122H177.065V64.9493H177.737V63.7596L179.207 62.835V64.9493H180.208Z" fill="black"/>
<path d="M180.541 64.9493H182.099L183.423 69.2005L184.715 64.9493H186.232L184.278 70.7115L183.929 71.7546C183.8 72.1041 183.677 72.371 183.561 72.5552C183.445 72.7394 183.311 72.8888 183.16 73.0034C183.009 73.118 182.823 73.2073 182.602 73.2712C182.382 73.3351 182.132 73.3671 181.854 73.3671C181.573 73.3671 181.297 73.3351 181.026 73.2712L180.895 72.0308C181.125 72.0797 181.331 72.1041 181.516 72.1041C181.856 72.1041 182.108 71.996 182.271 71.7799C182.435 71.5638 182.56 71.2885 182.646 70.9539L180.541 64.9493Z" fill="black"/>
<path d="M166.267 57.3189C156.685 57.3822 153.435 56.0249 149.297 52.804C145.16 49.5831 143.236 44.4496 142.891 37.9101H155.982C156.563 44.6404 160.296 47.256 166.555 47.2181C171.422 47.2034 175.79 46.0513 175.275 41.1588C174.936 36.0653 167.206 36.9013 157.174 32.6547C150.145 30.5627 143.414 24.9812 143.996 16.2709C144.881 4.4312 155.525 0.0442766 165.517 1.16938e-05C177.439 -0.00954027 186.546 5.83258 186.707 18.0532L173.821 17.8741C173.762 10.6679 165.786 10.6449 164.801 10.6316C159.618 10.4619 157.054 13.2668 157.178 15.5106C157.228 19.7781 162.471 20.9342 167.599 22.5749C177.233 25.6342 188.538 27.4595 188.6 40.3594C188.501 45.5003 187.084 49.2988 182.783 52.7427C179.463 55.3372 173.822 57.2799 166.267 57.3189Z" fill="#C7002B"/>
<path d="M0.123047 2.33444H14.091V56.4673H0.123047V2.33444Z" fill="#C7002B"/>
<path d="M20.0005 2.33444H61.7254V13.3509H33.5691V23.4922H61.7254V34.2368H33.5691V45.3396H61.7254V56.4673H20.0005V2.33444Z" fill="#C7002B"/>
<path d="M67.0981 2.33444H80.8871V44.8382H106.316V56.4673H67.0981V2.33444Z" fill="#C7002B"/>
<path d="M96.186 2.33444H141.138V13.3509H125.563V56.4673H111.824V13.3509H96.186V2.33444Z" fill="#C7002B"/>
<path d="M185.355 8.62881V3.25984H183.534V2.16666H188.41V3.25984H186.594V8.62881H185.355Z" fill="black"/>
<path d="M189.197 8.62881V2.16666H191.051L192.164 6.57467L193.265 2.16666H195.123V8.62881H193.972V3.54196L192.754 8.62881H191.561L190.348 3.54196V8.62881H189.197Z" fill="black"/>
</g>
<defs>
<clipPath id="clip0_155_38746">
<rect width="195" height="73.3671" fill="white" transform="translate(0.123047)"/>
</clipPath>
</defs>
</svg>
