<svg width="170" height="120" viewBox="0 0 170 120" fill="none" xmlns="http://www.w3.org/2000/svg">
<path d="M67.8289 112.77C67.2449 113.581 65.3391 115.998 62.9681 115.998C59.7616 115.998 59.089 113.748 59.089 111.86C59.089 108.756 61.4655 107.32 67.8289 105.749V112.77ZM75.7508 116.573C75.658 116.332 75.4078 116.195 75.162 116.253L75.0842 116.273C74.3528 116.432 73.7908 116.387 73.3966 116.121C72.8377 115.742 72.5655 114.889 72.5655 113.513V101.069C72.5655 96.208 69.6673 93.7439 63.9497 93.7439C58.8287 93.7439 54.8167 96.1676 54.8167 99.2616C54.8167 100.853 55.7858 102.002 57.2179 102.175C58.1533 102.288 59.0452 101.864 59.6935 101.181C60.9524 99.8521 60.7891 98.2727 59.2628 96.5761C60.1655 95.631 61.7644 95.072 63.5879 95.072C66.5605 95.072 67.8289 96.8347 67.8289 100.966V104.111C67.1319 104.326 66.4799 104.53 65.2873 104.81C62.8805 105.375 59.5795 106.127 57.0893 107.503C55.0336 108.629 53.9912 110.408 53.9912 112.791C53.9912 115.384 55.693 118.411 60.4898 118.411C63.1756 118.411 65.5827 117.137 68.0527 114.404C68.2654 117.244 69.3419 118.309 71.9527 118.309C73.2082 118.309 74.2127 118.016 75.4067 117.438C75.73 117.281 75.8843 116.906 75.7508 116.573Z" fill="#2F2A28"/>
<path d="M129.038 94.917C126.101 94.917 122.731 96.1802 122.731 106.026C122.731 113.536 124.946 117.186 129.502 117.186C133.863 117.186 135.808 113.744 135.808 106.026C135.808 98.5508 133.594 94.917 129.038 94.917ZM129.295 118.515C122.499 118.515 117.375 113.191 117.375 106.129C117.375 99.2143 122.722 93.5885 129.295 93.5885C135.951 93.5885 141.165 99.0061 141.165 105.923C141.165 113.701 135.004 118.515 129.295 118.515Z" fill="#2F2A28"/>
<path d="M11.7813 113.513V104.511H15.2475C20.4193 104.511 24.3537 103.416 26.9419 101.257C29.6472 98.9998 30.2148 96.1405 30.2148 94.1391C30.2148 85.9074 22.2723 84.1799 15.609 84.1799L15.6357 84.1792H2.12095C1.81503 84.1792 1.56616 84.4281 1.56616 84.7339V84.7708L1.56588 84.759C1.56588 85.0419 1.73818 85.2932 2.00364 85.3909C3.20686 85.833 6.47701 85.2105 6.47701 88.7174L6.47736 113.509C6.47736 115.312 5.67755 116.584 2.02196 116.929C1.73248 116.957 1.51318 117.195 1.51318 117.481V117.566C1.51318 117.872 1.7622 118.121 2.06798 118.121H16.5068C16.8127 118.121 17.0616 117.872 17.0616 117.566V117.49C17.0616 117.204 16.8342 116.961 16.5447 116.938C12.5738 116.621 11.7764 115.391 11.7764 113.509V104.527M24.239 94.0355C24.239 99.7631 22.8271 102.919 15.609 102.919H11.7813V85.612H15.764C23.2317 85.612 24.239 89.8703 24.239 94.0355Z" fill="#2F2A28"/>
<path d="M35.0801 102.936C35.6067 97.776 37.6207 94.9473 40.7834 94.9473C42.3663 94.9473 43.5398 95.3852 44.3695 96.2869C45.5096 97.5254 45.991 99.7625 45.8016 102.936H35.0801ZM41.1439 93.5764C34.8587 93.5764 29.7456 99.2671 29.7456 106.262C29.7456 113.344 34.5393 118.483 41.1439 118.483C46.6939 118.483 49.394 115.167 50.9421 112.673C51.0947 112.428 51.028 112.103 50.7906 111.933L50.7172 111.881C50.4781 111.711 50.1448 111.758 49.9602 111.991C47.9191 114.549 46.1335 116.03 43.049 116.03C39.1476 116.03 34.9793 113.342 34.9793 105.798V105.743C34.973 105.409 34.981 104.952 34.9929 104.527H50.9543C50.9984 104.527 51.0339 104.492 51.0374 104.449L51.0464 104.321C51.2717 101.227 50.3964 98.4479 48.5823 96.4954C46.8068 94.5858 44.2343 93.5764 41.1439 93.5764Z" fill="#2F2A28"/>
<path d="M107.303 103.215C107.301 103.215 107.299 103.215 107.298 103.214C102.933 101.99 101.232 100.751 101.232 98.7948C101.232 96.5653 103.001 94.9473 105.439 94.9473C108.307 94.9473 109.535 96.3178 112.562 101.379L112.602 101.447C112.617 101.472 112.645 101.488 112.674 101.488H113.089C113.395 101.488 113.644 101.239 113.644 100.933V93.6598C113.644 93.6139 113.606 93.5764 113.561 93.5764H113.013C112.846 93.5764 112.69 93.6507 112.584 93.7794L111.618 94.9556C110.398 94.2827 108.412 93.5764 106.418 93.5764C101.405 93.5764 97.9037 96.6751 97.9037 101.112C97.9037 105.276 100.665 106.836 105.432 108.124C110.065 109.392 111.706 110.711 111.706 113.163C111.706 115.887 109.066 117.112 107.191 117.112C103.703 117.112 102.228 115.816 98.886 109.811L98.8467 109.739C98.8321 109.713 98.8043 109.696 98.774 109.696H98.3555C98.05 109.696 97.8008 109.945 97.8008 110.251V118.4C97.8008 118.446 97.8383 118.483 97.8842 118.483H98.4515C98.5975 118.483 98.7407 118.424 98.8439 118.321L100.372 116.792C102.161 117.902 104.835 118.483 106.572 118.483C109.18 118.483 111.324 117.657 112.773 116.094C114.064 114.701 114.776 112.728 114.776 110.536C114.776 106.741 112.75 104.757 107.303 103.215Z" fill="#2F2A28"/>
<path d="M80.8889 115.196C80.8889 116.452 80.5699 116.863 78.5705 116.989C78.2803 117.008 78.0522 117.25 78.0522 117.542C78.0522 117.847 78.3008 118.095 78.606 118.095H88.4838C88.7845 118.095 89.0289 117.851 89.0289 117.551C89.0289 117.255 88.7984 117.012 88.5033 116.998C86.2172 116.888 85.6256 116.517 85.6256 115.195V100.711C87.2509 98.0075 88.4202 96.5924 90.3925 96.1646C90.2969 96.5059 90.2343 96.9161 90.2343 97.248C90.2343 99.0075 91.4638 100.236 93.2233 100.236C94.9515 100.236 96.159 99.0075 96.159 97.248C96.159 95.5837 95.1201 93.64 92.1902 93.64C89.7884 93.64 87.4932 95.0168 85.5227 98.3113V94.5858C85.5227 94.2059 85.2095 93.9007 84.83 93.9108L78.606 94.0769C78.3046 94.0856 78.0686 94.3279 78.0686 94.6289V94.7095C78.0686 94.9827 78.2674 95.217 78.5302 95.2535C80.605 95.5483 80.891 96.5351 80.8893 97.5577L80.8889 115.196Z" fill="#2F2A28"/>
<path d="M149.203 93.8941C149.347 93.8941 149.483 93.9493 149.587 94.0501C149.695 94.1544 149.755 94.2952 149.756 94.4457L149.779 98.5772C149.779 98.5772 151.805 93.7314 158.385 93.7314H158.443C162.544 93.7314 164.896 96.3467 164.896 100.906V115.171C164.896 116.428 165.216 116.84 167.214 116.966C167.505 116.983 167.733 117.226 167.733 117.518C167.733 117.823 167.484 118.071 167.179 118.071H158.306C158 118.071 157.75 117.822 157.75 117.517C157.75 117.22 157.973 116.978 158.256 116.954C159.869 116.817 160.126 116.409 160.126 115.171V102.296C160.126 98.0457 158.918 96.3898 155.816 96.3898C153.72 96.3898 152.003 98.2199 150.932 99.7548C150.932 99.7548 150.385 100.441 149.792 101.731L149.858 115.171C149.858 116.406 150.108 116.813 151.674 116.953C151.957 116.977 152.179 117.219 152.179 117.504C152.179 117.822 151.93 118.071 151.625 118.071H142.806C142.5 118.071 142.252 117.823 142.252 117.517C142.252 117.226 142.48 116.983 142.77 116.965C144.769 116.839 145.089 116.427 145.089 115.171V97.5608C145.089 96.533 144.801 95.541 142.716 95.2448C142.451 95.2076 142.252 94.9726 142.252 94.698V94.6171C142.252 94.3143 142.489 94.071 142.792 94.0623L149.203 93.8941Z" fill="#2F2A28"/>
<path d="M103.376 6.15615C119.017 15.067 122.658 35.0498 111.775 55.2664C102.211 73.0382 81.3269 80.6282 65.7659 71.5803C50.2014 62.5308 47.1638 37.2869 53.8525 22.7599C63.5642 1.66595 86.0948 -3.69219 103.376 6.15615Z" fill="#0F86AC"/>
<path d="M83.2404 58.8102C82.7642 58.439 82.2289 58.1842 81.6902 58.0761C81.5066 58.0406 81.3182 58.0205 81.1323 58.0205C80.1149 58.0205 79.1176 58.5801 78.4652 59.521C77.9202 60.3021 77.6974 61.2353 77.842 62.1415C77.9337 62.7178 78.1499 63.2191 78.469 63.5927C78.8274 64.015 79.3759 64.3373 80.0554 64.5312C80.4489 64.64 80.8521 64.6981 81.2546 64.6981H81.2557C82.1334 64.6981 82.9231 64.4349 83.5366 63.9368C84.2502 63.356 84.6388 62.527 84.6301 61.6041C84.6221 60.5273 84.1025 59.4814 83.2404 58.8102ZM103.013 21.4882C106.074 24.7569 107.028 29.7171 106.495 33.7853C105.887 38.4242 103.076 42.7167 98.3989 45.5627C94.6898 47.8197 89.8176 48.7203 85.0232 48.763C84.985 49.5232 84.8331 52.1416 84.7566 52.556C84.644 53.1667 84.4302 53.4962 84.1685 53.8382C83.6537 54.5091 82.7604 54.9425 81.8734 55.1952C81.1681 55.3958 80.4708 55.482 79.9762 55.482C79.8924 55.482 79.8107 55.4771 79.7308 55.467C79.2094 55.408 78.6307 55.1632 78.2726 54.7639C77.9153 54.3645 77.7127 53.8594 77.6654 53.2873L77.6254 52.7704C77.5239 52.3252 76.9685 29.7841 77.0762 30.1849C77.1565 27.4845 81.5171 27.0131 83.8831 27.49C86.2541 27.968 85.6538 30.8485 85.5898 34.3897C85.5898 34.3897 85.4772 39.0464 85.2586 43.967C88.2767 43.8488 90.6747 42.9885 92.9191 41.8734C97.4518 39.6266 99.8508 36.1802 99.8508 31.1039C99.8508 26.0274 94.9088 20.3428 85.7925 20.3428C76.6765 20.3428 72.7633 22.6422 68.3492 26.294C67.3541 27.1174 66.5876 27.9471 65.8626 28.4932C65.1378 29.0392 63.2129 29.123 62.6967 27.8449C62.0748 26.304 63.2368 24.5862 63.9195 23.7551C64.9915 22.4503 67.636 19.8221 70.5665 18.2952C73.9232 16.5426 78.03 14.6559 83.7472 14.5116C88.9197 14.3809 97.0864 14.7998 102.969 21.4444" fill="white"/>
</svg>
