<svg width="36" height="36" viewBox="0 0 36 36" fill="none" xmlns="http://www.w3.org/2000/svg">
<path d="M9.66675 21.3333C8.93922 21.3343 8.2207 21.4942 7.56132 21.8016C6.90194 22.109 6.3176 22.5567 5.84907 23.1132C5.38054 23.6698 5.03912 24.3219 4.84863 25.0241C4.65814 25.7262 4.62317 26.4615 4.74616 27.1785C4.86916 27.8956 5.14715 28.5772 5.56074 29.1757C5.97433 29.7742 6.51356 30.2753 7.14078 30.6439C7.768 31.0125 8.46812 31.2398 9.19225 31.31C9.91639 31.3801 10.6471 31.2913 11.3334 31.0499" stroke="white" stroke-width="2" stroke-linecap="round" stroke-linejoin="round"/>
<path d="M5.10673 24.0083C4.10933 23.5281 3.2472 22.8071 2.59814 21.9104C1.94909 21.0137 1.53354 19.9695 1.38899 18.872C1.24445 17.7745 1.37546 16.6583 1.7702 15.6242C2.16495 14.59 2.811 13.6704 3.65006 12.9483M3.70006 12.8133C3.15346 11.9954 2.91389 11.0104 3.02376 10.0329C3.13363 9.05526 3.58584 8.14807 4.30035 7.47188C5.01486 6.79569 5.94558 6.39412 6.92774 6.33825C7.9099 6.28239 8.88015 6.57583 9.66673 7.16664M10.0634 7.27497C9.79751 6.71005 9.662 6.09259 9.66685 5.46824C9.67171 4.8439 9.81682 4.22862 10.0914 3.6679C10.3661 3.10718 10.7632 2.61535 11.2535 2.22876C11.7438 1.84217 12.3147 1.5707 12.924 1.43443C13.5333 1.29816 14.1655 1.30057 14.7737 1.44148C15.382 1.58238 15.9508 1.85818 16.4381 2.2485C16.9254 2.63881 17.3188 3.13365 17.5892 3.69645C17.8595 4.25925 18 4.87561 18.0001 5.49997V31.3333C18.0001 32.2174 17.6489 33.0652 17.0237 33.6903C16.3986 34.3154 15.5508 34.6666 14.6667 34.6666C13.7827 34.6666 12.9348 34.3154 12.3097 33.6903C11.6846 33.0652 11.3334 32.2174 11.3334 31.3333M18.0001 9.66664C18.0001 10.9927 18.5268 12.2645 19.4645 13.2022C20.4022 14.1399 21.674 14.6666 23.0001 14.6666M26.3334 21.3333C27.0609 21.3344 27.7794 21.4942 28.4388 21.8017C29.0982 22.1091 29.6825 22.5567 30.1511 23.1133C30.6196 23.6699 30.961 24.322 31.1515 25.0241C31.342 25.7263 31.377 26.4615 31.254 27.1786C31.131 27.8956 30.853 28.5772 30.4394 29.1757C30.0258 29.7743 29.4866 30.2753 28.8594 30.644C28.2321 31.0126 27.532 31.2399 26.8079 31.31C26.0837 31.3801 25.353 31.2914 24.6667 31.05" stroke="white" stroke-width="2" stroke-linecap="round" stroke-linejoin="round"/>
<path d="M30.8933 24.0083C31.8907 23.5281 32.7529 22.8071 33.4019 21.9104C34.051 21.0137 34.4665 19.9695 34.6111 18.872C34.7556 17.7745 34.6246 16.6583 34.2299 15.6242C33.8351 14.59 33.1891 13.6704 32.35 12.9483M32.3 12.8133C32.8466 11.9954 33.0862 11.0104 32.9763 10.0329C32.8664 9.05526 32.4142 8.14807 31.6997 7.47188C30.9852 6.79569 30.0545 6.39412 29.0723 6.33825C28.0902 6.28239 27.1199 6.57583 26.3333 7.16664M18 5.49997C18.0001 4.87561 18.1405 4.25925 18.4109 3.69645C18.6812 3.13365 19.0746 2.63881 19.5619 2.2485C20.0493 1.85818 20.6181 1.58238 21.2263 1.44148C21.8346 1.30057 22.4667 1.29816 23.0761 1.43443C23.6854 1.5707 24.2563 1.84217 24.7466 2.22876C25.2368 2.61535 25.634 3.10718 25.9086 3.6679C26.1832 4.22862 26.3284 4.8439 26.3332 5.46824C26.3381 6.09259 26.2025 6.71005 25.9367 7.27497M24.6667 31.3333C24.6667 32.2174 24.3155 33.0652 23.6904 33.6903C23.0652 34.3154 22.2174 34.6666 21.3333 34.6666C20.4493 34.6666 19.6014 34.3154 18.9763 33.6903C18.3512 33.0652 18 32.2174 18 31.3333" stroke="white" stroke-width="2" stroke-linecap="round" stroke-linejoin="round"/>
</svg>
