<svg width="40" height="40" viewBox="0 0 40 40" fill="none" xmlns="http://www.w3.org/2000/svg">
<path d="M21.6666 30H4.99992C4.55789 30 4.13397 29.8244 3.82141 29.5118C3.50885 29.1993 3.33325 28.7754 3.33325 28.3333V6.66667C3.33325 6.22464 3.50885 5.80072 3.82141 5.48816C4.13397 5.17559 4.55789 5 4.99992 5H34.9999C35.4419 5 35.8659 5.17559 36.1784 5.48816C36.491 5.80072 36.6666 6.22464 36.6666 6.66667V28.3333C36.6666 28.7754 36.491 29.1993 36.1784 29.5118C35.8659 29.8244 35.4419 30 34.9999 30H28.3333M9.99992 11.6667H29.9999M9.99992 17.5H14.9999M9.99992 23.3333H13.3333" stroke="white" stroke-width="2" stroke-linecap="round" stroke-linejoin="round"/>
<path d="M25 26C26.3261 26 27.5979 25.4732 28.5355 24.5355C29.4732 23.5979 30 22.3261 30 21C30 19.6739 29.4732 18.4021 28.5355 17.4645C27.5979 16.5268 26.3261 16 25 16C23.6739 16 22.4021 16.5268 21.4645 17.4645C20.5268 18.4021 20 19.6739 20 21C20 22.3261 20.5268 23.5979 21.4645 24.5355C22.4021 25.4732 23.6739 26 25 26Z" stroke="white" stroke-width="2"/>
<path d="M25 32.4802L28 34V26C28 26 27.145 27.1611 25 27.1611C22.855 27.1611 22 26.0213 22 26.0213V34L25 32.4802Z" stroke="white" stroke-width="2" stroke-linecap="round" stroke-linejoin="round"/>
</svg>
