<svg width="36" height="30" viewBox="0 0 36 30" fill="none" xmlns="http://www.w3.org/2000/svg">
<path d="M2.16675 4.9999L11.3334 1.66656L20.5001 4.9999L16.3334 7.4999V9.9999C16.3334 9.9999 15.2217 9.16656 11.3334 9.16656C7.44508 9.16656 6.33341 9.9999 6.33341 9.9999V7.4999L2.16675 4.9999ZM2.16675 4.9999V11.6666" stroke="white" stroke-width="2" stroke-linecap="round" stroke-linejoin="round"/>
<path d="M16.3334 9.16661V10.6483C16.3334 13.5116 14.095 15.8333 11.3334 15.8333C8.57171 15.8333 6.33337 13.5116 6.33337 10.6483V9.16661M23.53 13.3833C23.53 13.3833 24.3384 12.7949 27.1667 12.7949C29.995 12.7949 30.8034 13.3816 30.8034 13.3816M23.53 13.3833V11.6666L20.5 9.99994L27.1667 7.49994L33.8334 9.99994L30.8034 11.6666V13.3816M23.53 13.3833V13.8633C23.53 14.8278 23.9132 15.7528 24.5952 16.4348C25.2772 17.1168 26.2022 17.4999 27.1667 17.4999C28.1312 17.4999 29.0562 17.1168 29.7382 16.4348C30.4202 15.7528 30.8034 14.8278 30.8034 13.8633V13.3816M24.6667 28.3333H30.8417C32.13 28.3333 33.1534 27.7066 34.0734 26.8299C35.9567 25.0366 32.865 23.6033 31.6867 22.9016C30.6388 22.2831 29.4752 21.886 28.2677 21.7349C27.0603 21.5839 25.8347 21.682 24.6667 22.0233M5.30837 21.5433C3.73671 22.4216 -0.384961 24.2133 2.12504 26.4549C3.35171 27.5499 4.71671 28.3333 6.43504 28.3333H16.2317C17.9484 28.3333 19.315 27.5499 20.5417 26.4549C23.0517 24.2133 18.93 22.4216 17.3584 21.5433C13.6717 19.4849 8.99504 19.4849 5.30837 21.5433Z" stroke="white" stroke-width="2" stroke-linecap="round" stroke-linejoin="round"/>
</svg>
