<svg width="36" height="36" viewBox="0 0 36 36" fill="none" xmlns="http://www.w3.org/2000/svg">
<path d="M1.33337 34.6666H33.8334M3.00004 19.6666V34.6666M33 19.6666V34.6666M10.5 11.3333V34.6666M25.5 11.3333V34.6666M1.33337 19.6666H9.66671M34.6667 19.6666H26.3334M8.83337 11.3333H27.1667M18 11.3333V6.30329M18 6.30329V2.94996C18 2.15996 18 1.76496 18.2434 1.51996C19.01 0.748289 22.1667 2.57162 23.3667 3.31162C24.38 3.93496 24.6667 5.18162 24.6667 6.30329H18ZM18 34.6666V31.3333M15.5 18V18.8333M20.5 18V18.8333M15.5 24.6666V25.5M20.5 24.6666V25.5" stroke="white" stroke-width="2" stroke-linecap="round" stroke-linejoin="round"/>
</svg>
